<?xml version="1.0" encoding="UTF-8" standalone="no"?><!DOCTYPE svg PUBLIC "-//W3C//DTD SVG 1.1//EN" "http://www.w3.org/Graphics/SVG/1.1/DTD/svg11.dtd"><svg width="100%" height="100%" viewBox="0 0 975 625" version="1.1" xmlns="http://www.w3.org/2000/svg" xmlns:xlink="http://www.w3.org/1999/xlink" xml:space="preserve" xmlns:serif="http://www.serif.com/" style="fill-rule:evenodd;clip-rule:evenodd;stroke-linejoin:round;stroke-miterlimit:2;"><path d="M905.891,160.745c0,-40.052 -56.276,-72.569 -125.593,-72.569c-69.318,0 -125.594,32.517 -125.594,72.569c0,19.822 14.033,38.781 38.839,52.473l-38.839,56.38l75.131,-42.4c15.908,4.033 33.091,6.115 50.463,6.115c69.317,0 125.593,-32.517 125.593,-72.568Z" style="fill:#ececec;"/><path d="M880.438,446.242c0,40.052 -56.277,72.569 -125.594,72.569c-69.317,0 -125.593,-32.517 -125.593,-72.569c0,-20.042 14.345,-39.191 39.634,-52.909l-39.634,-55.944l74.129,42.657c16.184,-4.201 33.723,-6.372 51.464,-6.372c69.317,0 125.594,32.517 125.594,72.568Z" style="fill:#ececec;"/><path d="M63.271,158.062c0,-40.052 56.277,-72.569 125.594,-72.569c69.317,0 125.594,32.517 125.594,72.569c0,19.822 -14.033,38.782 -38.839,52.474l38.839,56.379l-75.132,-42.399c-15.907,4.033 -33.09,6.115 -50.462,6.115c-69.317,0 -125.594,-32.517 -125.594,-72.569Z" style="fill:#ececec;"/><path d="M57.933,454.934c0,39.656 56.277,71.851 125.594,71.851c69.317,0 125.593,-32.195 125.593,-71.851c0,-19.816 -14.304,-38.752 -39.53,-52.331l39.53,-57.24l-76.006,43.556c-15.665,-3.851 -32.537,-5.837 -49.587,-5.837c-69.317,0 -125.594,32.196 -125.594,71.852Z" style="fill:#ececec;"/><path d="M359.084,86.366c0.675,-40.046 57.491,-71.611 126.799,-70.443c69.307,1.168 125.028,34.628 124.353,74.674c-0.628,37.296 -50.088,67.693 -114.381,70.297l-12.463,36.435l-11.609,-36.799c-64.498,-4.566 -113.33,-36.701 -112.699,-74.164Z" style="fill:#ececec;"/><path d="M348.715,535.308c0.674,40.047 57.491,71.611 126.798,70.443c69.307,-1.167 125.028,-34.627 124.354,-74.673c-0.629,-37.296 -50.088,-67.693 -114.382,-70.297l-12.463,-36.435l-11.609,36.798c-64.497,4.567 -113.329,36.702 -112.698,74.164Z" style="fill:#ececec;"/><path d="M510.297,76.736l-33.787,0c-0.507,0 -1.074,-0.372 -1.276,-0.828l-15.5,-35.453c-0.203,-0.456 -0.769,-0.828 -1.276,-0.828l-11.299,0c-0.507,0 -0.913,0.406 -0.913,0.913l0,2.822c0,0.507 0.406,0.913 0.913,0.913l8.265,0c0.507,0 1.073,0.372 1.276,0.828l15.508,35.453c0.203,0.456 0.769,0.828 1.276,0.828l36.813,0c0.508,0 0.913,-0.405 0.913,-0.913l0,-2.822c-0.008,-0.499 -0.414,-0.913 -0.913,-0.913Zm-29.249,9.288c-3.845,0 -6.955,3.11 -6.955,6.955c0,3.845 3.118,6.955 6.955,6.955c3.837,0 6.955,-3.11 6.955,-6.955c0,-3.845 -3.118,-6.955 -6.955,-6.955Zm23.198,0c-3.845,0 -6.955,3.11 -6.955,6.955c0,3.845 3.119,6.955 6.955,6.955c3.837,0 6.956,-3.11 6.956,-6.955c0,-3.845 -3.119,-6.955 -6.956,-6.955Zm15.331,-37.118l-49.22,0c-0.507,0 -0.752,0.381 -0.566,0.845l1.183,2.958c0.186,0.465 0.744,0.845 1.242,0.845l45.493,0c0.507,0 1.057,-0.38 1.242,-0.845l1.184,-2.958c0.194,-0.473 -0.068,-0.845 -0.558,-0.845Zm-7.429,18.551l-34.371,0c-0.507,0 -0.752,0.38 -0.566,0.845l1.183,2.958c0.186,0.464 0.744,0.845 1.243,0.845l30.66,0c0.508,0 1.057,-0.381 1.243,-0.845l1.183,-2.958c0.177,-0.465 -0.068,-0.845 -0.575,-0.845Zm3.71,-9.28l-41.791,0c-0.507,0 -0.752,0.381 -0.566,0.845l1.183,2.958c0.186,0.465 0.744,0.845 1.243,0.845l38.081,0c0.507,0 1.056,-0.38 1.242,-0.845l1.183,-2.958c0.186,-0.464 -0.068,-0.845 -0.575,-0.845Z" style="fill-rule:nonzero;"/><path d="M434.622,247.15c11.713,0 21.847,4.05 30.988,10.238c6.091,4.122 13.584,10.837 17.441,18.641c5.139,-3.707 14.756,-5.389 19.601,-5.4c0.944,0 1.888,0.046 2.828,0.137c7.071,0.692 13.55,3.129 18.863,7.21c5.318,4.068 9.398,9.785 11.717,16.536c1.036,2.997 1.759,7.084 2.17,12.261c6.2,2.803 8.339,3.617 13.551,8.144c5.208,4.538 8.644,9.589 11.254,16.216c1.735,4.415 2.742,9.213 2.742,14.172c0.002,5.486 -1.113,10.748 -3.115,15.499c-2.002,4.756 -4.882,9.002 -8.411,12.545c-6.944,6.979 -16.446,11.278 -26.856,11.409l-26.87,0.002l-0.083,-3.187l0,3.187l-111.248,0c-15.848,-0.01 -29.627,-9.653 -35.623,-23.84c-1.995,-4.726 -3.102,-9.965 -3.102,-15.424c-0.005,-10.308 3.95,-19.723 10.285,-26.647c4.221,-4.628 10.179,-8.298 17.872,-11.012c-0.757,-7.988 1.929,-19.99 5.363,-27.288c3.152,-6.701 9.319,-18.263 22.704,-26.034c9.568,-5.554 17.769,-7.365 27.929,-7.365Zm80.73,-23.955l4.544,10.944l11.358,1.29l6.802,-9.629c0,0 6.404,1.668 11.23,5.19l0.225,0.166l-2.406,11.717l8.472,7.964l10.879,-3.713c0,0 4.419,5.501 6.368,11.462l0.089,0.275l-8.532,8.027l2.347,11.692l10.843,3.682c0,0 0.584,6.699 -1.315,13.215l-0.086,0.287l-11.362,1.248l-4.717,10.926l-10.82,-6.852c8.156,-14.213 5.96,-32.883 -6.142,-44.448c-13.818,-13.213 -35.273,-12.157 -47.996,2.342c-1.48,1.685 -2.765,3.482 -3.876,5.357l-8.742,-8.262l-8.801,-8.157c0,0 5.199,-7.199 8.855,-10.173l0.163,-0.131l9.856,6.238l9.952,-5.947l-0.089,-12.066c0,0 7.661,-2.577 12.901,-2.644Zm-102.422,44.277c-11.361,7.408 -14.434,14.041 -16.974,19.445c-2.54,5.407 -3.946,11.39 -3.95,17.751c0,2.5 0.256,4.984 0.71,7.484l1.406,7.742l-7.383,0.699c-6.529,0.615 -12.286,3.676 -16.384,8.168c-4.094,4.505 -6.499,10.314 -6.506,16.731c0.004,3.418 0.684,6.638 1.933,9.601c1.245,2.961 3.068,5.663 5.349,7.952c4.567,4.579 10.929,7.473 18.056,7.473l110.966,-0.001l-0.001,-0.038l26.652,-0.056c10.727,0.011 19.857,-6.539 23.601,-15.47c1.254,-2.978 1.94,-6.213 1.94,-9.648c0,-2.894 -0.585,-5.816 -1.699,-8.654c-1.112,-2.834 -2.758,-5.571 -4.803,-8.004c-3.842,-4.592 -12.026,-10.395 -21.552,-10.751c0.688,-4.542 0.57,-6.511 0.57,-6.511c0.073,-0.83 0.116,-1.56 0.116,-2.216c-0.007,-5.55 -1.234,-10.035 -3.265,-13.596c-2.046,-3.558 -4.915,-6.273 -8.689,-8.148c-2.516,-1.244 -5.449,-2.09 -8.774,-2.417c-0.491,-0.049 -1.023,-0.073 -1.586,-0.073c-2.9,-0.015 -6.578,0.723 -9.929,1.973c-3.235,1.182 -6.193,2.883 -7.93,4.37l-0.188,0.164l-7.029,6.192l-3.467,-8.987c-2.995,-7.766 -8.365,-14.4 -15.331,-19.117c-6.963,-4.713 -15.167,-8.307 -24.342,-8.307c-7.691,0.004 -14.852,1.904 -21.517,6.249Z"/><path d="M187.082,416.543c-0.523,0.049 -0.972,0.212 -1.348,0.481c-0.383,0.278 -0.694,0.621 -0.939,1.037c-0.245,0.417 -0.424,0.882 -0.522,1.413c-0.106,0.531 -0.131,1.061 -0.074,1.617c0.066,0.71 0.27,1.208 0.613,1.494c0.335,0.286 0.759,0.4 1.265,0.359c0.311,-0.032 0.588,-0.081 0.809,-0.147c0.22,-0.065 0.465,-0.155 0.727,-0.261l0.457,-5.961c-0.18,-0.032 -0.343,-0.049 -0.498,-0.049c-0.147,-0.008 -0.311,0 -0.49,0.017Zm-36.843,-5.055c11.334,11.309 22.643,22.635 33.969,33.944c0.955,0.964 1.388,0.955 2.359,-0.008l32.107,-32.107c0.784,-0.784 1.87,-1.453 2.254,-2.4c0.392,-0.972 0.122,-2.23 0.122,-3.373c0.008,-2.245 -1.094,-3.34 -3.348,-3.34l-64.744,0c-2.131,0 -3.242,1.135 -3.25,3.283c0,0.898 0.033,1.796 -0.016,2.695c-0.025,0.547 0.163,0.922 0.547,1.306Zm25.958,6.573c0.376,-1.478 1.037,-2.858 1.976,-4.115c0.947,-1.266 2.205,-2.335 3.765,-3.225c1.559,-0.89 3.462,-1.438 5.699,-1.658c1.2,-0.114 2.344,-0.057 3.438,0.155c1.102,0.221 2.074,0.621 2.931,1.209c0.858,0.588 1.568,1.355 2.131,2.31c0.556,0.964 0.907,2.115 1.037,3.471c0.098,0.98 0.025,1.959 -0.204,2.948c-0.228,0.988 -0.596,1.886 -1.11,2.694c-0.507,0.809 -1.152,1.494 -1.944,2.05c-0.784,0.555 -1.674,0.882 -2.678,0.996c-1.151,0.114 -2.05,-0.106 -2.711,-0.645c-0.449,0.286 -0.923,0.539 -1.429,0.767c-0.506,0.229 -1.151,0.384 -1.943,0.458c-0.498,0.049 -0.988,0.016 -1.437,-0.082c-0.458,-0.106 -0.858,-0.31 -1.225,-0.596c-0.359,-0.294 -0.662,-0.67 -0.907,-1.143c-0.245,-0.474 -0.4,-1.045 -0.465,-1.723c-0.106,-1.07 -0.016,-2.074 0.253,-2.997c0.27,-0.923 0.678,-1.739 1.233,-2.45c0.547,-0.702 1.217,-1.273 1.992,-1.714c0.776,-0.441 1.625,-0.711 2.556,-0.801c0.711,-0.065 1.413,-0.081 2.107,-0.04c0.694,0.032 1.355,0.13 1.976,0.294l-0.743,8.165c0.171,0.106 0.433,0.147 0.8,0.114c0.588,-0.057 1.086,-0.277 1.511,-0.669c0.424,-0.392 0.759,-0.874 1.012,-1.462c0.262,-0.58 0.433,-1.208 0.523,-1.902c0.098,-0.686 0.106,-1.348 0.041,-2.001c-0.172,-1.813 -0.858,-3.144 -2.05,-4.001c-1.2,-0.857 -2.792,-1.184 -4.801,-0.996c-1.543,0.147 -2.891,0.547 -4.05,1.184c-1.16,0.645 -2.107,1.453 -2.842,2.425c-0.735,0.972 -1.274,2.049 -1.6,3.258c-0.319,1.2 -0.425,2.417 -0.311,3.666c0.107,1.135 0.368,2.091 0.793,2.858c0.416,0.776 0.939,1.388 1.567,1.837c0.637,0.458 1.348,0.768 2.156,0.931c0.8,0.155 1.641,0.196 2.531,0.115c0.817,-0.082 1.568,-0.205 2.254,-0.368c0.686,-0.171 1.298,-0.392 1.845,-0.669c0.172,0.334 0.343,0.677 0.507,1.037c0.155,0.359 0.31,0.71 0.432,1.069c-0.269,0.172 -0.596,0.335 -0.979,0.482c-0.384,0.155 -0.801,0.294 -1.25,0.408c-0.449,0.123 -0.931,0.221 -1.437,0.311c-0.506,0.089 -1.021,0.155 -1.519,0.204c-1.216,0.114 -2.384,0.049 -3.503,-0.196c-1.126,-0.245 -2.131,-0.686 -3.021,-1.323c-0.882,-0.637 -1.617,-1.478 -2.196,-2.515c-0.58,-1.045 -0.939,-2.319 -1.086,-3.813c-0.123,-1.38 0,-2.826 0.375,-4.312Zm28.726,15.229c-0.187,-0.188 -0.375,-0.359 -0.702,-0.678c-0.188,0.245 -0.335,0.507 -0.539,0.702c-4.891,4.9 -9.782,9.791 -14.681,14.69c-2.295,2.295 -4.94,2.303 -7.219,0.025c-4.891,-4.891 -9.79,-9.791 -14.681,-14.69c-0.204,-0.204 -0.359,-0.457 -0.564,-0.727c-0.236,0.213 -0.318,0.278 -0.392,0.351c-5.34,5.341 -10.68,10.689 -16.037,16.021c-0.481,0.482 -0.449,0.98 -0.31,1.519c0.376,1.453 1.462,2.196 3.152,2.196l64.834,0c0.212,0 0.425,0.017 0.637,-0.008c1.037,-0.122 1.87,-0.596 2.311,-1.568c0.449,-0.988 0.555,-1.543 -0.368,-2.457c-5.185,-5.079 -10.304,-10.24 -15.441,-15.376Zm-55.158,10.827l13.882,-13.881c-4.63,-4.671 -9.268,-9.341 -13.882,-13.996l0,27.877Zm71.228,-0.089l0,-27.804l-13.898,13.898l13.898,13.906Z" style="fill-rule:nonzero;"/><path d="M761.86,442.724c-0.301,-0.172 -0.413,-0.36 -0.404,-0.713c0.026,-0.884 -0.017,-1.778 0.026,-2.662c0.008,-0.206 0.163,-0.481 0.335,-0.601c0.584,-0.387 1.211,-0.722 1.821,-1.074c1.254,-0.722 2.508,-1.443 3.856,-2.225c-0.49,-1.434 -0.988,-2.834 -1.443,-4.243c-0.163,-0.515 -0.455,-0.575 -0.945,-0.524c-1.906,0.215 -3.813,0.378 -5.72,0.576c-0.361,0.034 -0.575,-0.069 -0.79,-0.378c-0.481,-0.722 -1.022,-1.4 -1.555,-2.087c-0.197,-0.249 -0.258,-0.447 -0.103,-0.747c0.301,-0.593 0.55,-1.211 0.816,-1.821c0.593,-1.34 1.185,-2.672 1.83,-4.114c-1.323,-0.911 -2.629,-1.796 -3.908,-2.697c-0.301,-0.207 -0.481,-0.121 -0.722,0.094c-1.486,1.306 -2.989,2.585 -4.475,3.899c-0.266,0.241 -0.481,0.25 -0.807,0.129c-0.816,-0.292 -1.641,-0.549 -2.474,-0.773c-0.378,-0.103 -0.55,-0.275 -0.635,-0.67c-0.439,-2.027 -0.902,-4.037 -1.383,-6.132l-5.222,0c-0.481,2.121 -0.945,4.148 -1.383,6.175c-0.078,0.37 -0.258,0.524 -0.61,0.619c-0.833,0.232 -1.666,0.481 -2.474,0.781c-0.352,0.129 -0.575,0.095 -0.85,-0.154c-1.486,-1.314 -2.981,-2.603 -4.492,-3.883c-0.138,-0.12 -0.473,-0.197 -0.593,-0.111c-1.34,0.884 -2.662,1.803 -3.994,2.723c0.902,2.035 1.735,3.95 2.611,5.849c0.172,0.369 0.121,0.61 -0.129,0.902c-0.472,0.549 -0.961,1.108 -1.314,1.735c-0.335,0.609 -0.738,0.695 -1.365,0.627c-1.864,-0.215 -3.728,-0.387 -5.6,-0.55c-0.172,-0.017 -0.473,0.103 -0.516,0.232c-0.558,1.503 -1.082,3.014 -1.606,4.518c0.284,0.171 0.438,0.266 0.593,0.36c1.675,0.962 3.35,1.941 5.033,2.886c0.326,0.181 0.438,0.387 0.421,0.765c-0.035,0.85 -0.035,1.7 0,2.542c0.017,0.378 -0.103,0.575 -0.43,0.756c-1.666,0.936 -3.324,1.898 -4.981,2.86c-0.189,0.112 -0.361,0.232 -0.627,0.404c0.489,1.425 0.996,2.826 1.451,4.243c0.163,0.515 0.455,0.541 0.911,0.489l5.72,-0.575c0.387,-0.043 0.618,0.06 0.842,0.404c0.429,0.661 0.884,1.305 1.4,1.898c0.326,0.369 0.369,0.661 0.163,1.108c-0.859,1.864 -1.683,3.736 -2.568,5.729c1.34,0.919 2.662,1.838 4.002,2.722c0.121,0.086 0.456,0 0.593,-0.12c1.512,-1.28 3.006,-2.568 4.492,-3.882c0.284,-0.249 0.498,-0.284 0.85,-0.146c0.791,0.3 1.598,0.55 2.414,0.764c0.395,0.103 0.584,0.275 0.678,0.696c0.43,2.027 0.902,4.037 1.375,6.124l5.213,0c0.473,-2.104 0.945,-4.123 1.383,-6.141c0.086,-0.387 0.249,-0.567 0.636,-0.67c0.833,-0.223 1.666,-0.473 2.473,-0.773c0.361,-0.138 0.576,-0.077 0.851,0.163c1.486,1.306 2.98,2.602 4.492,3.882c0.129,0.112 0.429,0.189 0.549,0.12c1.358,-0.893 2.697,-1.82 4.037,-2.739c-0.91,-2.053 -1.743,-3.977 -2.619,-5.875c-0.164,-0.352 -0.112,-0.567 0.12,-0.851c0.472,-0.575 0.988,-1.142 1.34,-1.786c0.343,-0.627 0.764,-0.67 1.383,-0.601c1.863,0.214 3.727,0.386 5.6,0.541c0.171,0.017 0.472,-0.155 0.524,-0.31c0.549,-1.468 1.056,-2.946 1.571,-4.431c-0.292,-0.189 -0.472,-0.31 -0.661,-0.421c-1.683,-0.928 -3.332,-1.89 -5.007,-2.835Zm-19.687,6.107c-4.397,-0.12 -8.039,-3.934 -7.901,-8.306c0.137,-4.595 3.925,-8.056 8.692,-7.936c4.414,0.112 8.03,3.934 7.902,8.366c-0.129,4.526 -3.96,8.005 -8.693,7.876Zm29.942,-26.119c0.283,1.314 0.584,2.628 0.893,3.985l3.393,0c0.309,-1.374 0.618,-2.688 0.902,-4.002c0.051,-0.25 0.163,-0.37 0.412,-0.438c0.541,-0.146 1.082,-0.31 1.615,-0.507c0.24,-0.086 0.369,-0.052 0.549,0.111c0.971,0.851 1.942,1.692 2.929,2.526c0.086,0.068 0.284,0.12 0.353,0.077c0.884,-0.584 1.76,-1.185 2.628,-1.787c-0.593,-1.339 -1.134,-2.585 -1.709,-3.83c-0.104,-0.232 -0.069,-0.37 0.077,-0.55c0.309,-0.378 0.644,-0.739 0.876,-1.16c0.223,-0.403 0.498,-0.438 0.902,-0.386c1.211,0.137 2.43,0.249 3.65,0.352c0.112,0.009 0.301,-0.103 0.344,-0.206c0.352,-0.953 0.687,-1.924 1.022,-2.886c-0.189,-0.12 -0.309,-0.198 -0.43,-0.275c-1.082,-0.627 -2.164,-1.245 -3.246,-1.864c-0.198,-0.111 -0.267,-0.232 -0.258,-0.463c0.017,-0.576 -0.009,-1.16 0.017,-1.735c0.009,-0.138 0.103,-0.318 0.224,-0.387c0.386,-0.258 0.79,-0.472 1.185,-0.696c0.816,-0.472 1.632,-0.944 2.516,-1.451c-0.317,-0.936 -0.644,-1.847 -0.944,-2.766c-0.112,-0.335 -0.292,-0.378 -0.619,-0.343c-1.237,0.146 -2.482,0.249 -3.727,0.377c-0.232,0.026 -0.378,-0.042 -0.516,-0.249c-0.318,-0.463 -0.661,-0.91 -1.013,-1.357c-0.129,-0.163 -0.172,-0.292 -0.069,-0.489c0.198,-0.387 0.352,-0.79 0.532,-1.186c0.387,-0.867 0.773,-1.743 1.194,-2.679c-0.867,-0.593 -1.709,-1.168 -2.551,-1.761c-0.197,-0.138 -0.309,-0.077 -0.472,0.06l-2.92,2.534c-0.172,0.154 -0.309,0.163 -0.524,0.086c-0.533,-0.189 -1.065,-0.361 -1.615,-0.507c-0.249,-0.069 -0.361,-0.18 -0.412,-0.438c-0.284,-1.323 -0.593,-2.628 -0.902,-3.994l-3.401,0c-0.31,1.383 -0.619,2.697 -0.902,4.02c-0.052,0.24 -0.172,0.343 -0.395,0.403c-0.541,0.146 -1.083,0.31 -1.615,0.507c-0.232,0.086 -0.369,0.06 -0.558,-0.103c-0.962,-0.85 -1.941,-1.692 -2.929,-2.525c-0.095,-0.077 -0.309,-0.129 -0.387,-0.077c-0.876,0.575 -1.735,1.176 -2.602,1.769c0.584,1.323 1.134,2.568 1.7,3.813c0.112,0.241 0.078,0.396 -0.085,0.593c-0.301,0.361 -0.627,0.722 -0.851,1.134c-0.214,0.395 -0.481,0.455 -0.893,0.404c-1.211,-0.147 -2.431,-0.25 -3.65,-0.361c-0.112,-0.009 -0.31,0.068 -0.335,0.154c-0.361,0.98 -0.705,1.967 -1.048,2.946c0.189,0.112 0.283,0.172 0.386,0.232c1.091,0.627 2.182,1.263 3.281,1.881c0.215,0.121 0.284,0.249 0.275,0.499c-0.026,0.549 -0.026,1.107 0,1.657c0.009,0.249 -0.069,0.378 -0.275,0.498c-1.091,0.61 -2.164,1.237 -3.246,1.864c-0.121,0.069 -0.241,0.155 -0.413,0.266c0.318,0.928 0.653,1.839 0.945,2.766c0.103,0.335 0.301,0.352 0.593,0.318c1.245,-0.138 2.482,-0.241 3.727,-0.369c0.25,-0.026 0.404,0.043 0.55,0.266c0.275,0.429 0.576,0.85 0.911,1.237c0.214,0.24 0.24,0.429 0.103,0.721c-0.559,1.211 -1.091,2.439 -1.675,3.736c0.876,0.602 1.735,1.203 2.611,1.778c0.077,0.052 0.3,0 0.386,-0.077c0.988,-0.833 1.959,-1.675 2.929,-2.525c0.181,-0.163 0.327,-0.189 0.559,-0.095c0.515,0.198 1.039,0.361 1.571,0.499c0.258,0.068 0.387,0.18 0.447,0.455Zm-2.817,-12.265c0.094,-2.998 2.559,-5.248 5.66,-5.171c2.877,0.069 5.231,2.568 5.145,5.445c-0.086,2.946 -2.585,5.214 -5.66,5.137c-2.861,-0.078 -5.231,-2.56 -5.145,-5.411Zm23.182,33.411c-0.756,-0.438 -1.503,-0.867 -2.268,-1.297c-0.137,-0.077 -0.189,-0.163 -0.18,-0.326c0.008,-0.404 -0.009,-0.808 0.008,-1.211c0,-0.095 0.078,-0.224 0.155,-0.275c0.266,-0.181 0.55,-0.327 0.825,-0.49c0.566,-0.326 1.142,-0.661 1.752,-1.013c-0.224,-0.653 -0.447,-1.289 -0.653,-1.924c-0.077,-0.232 -0.206,-0.267 -0.43,-0.241c-0.867,0.103 -1.735,0.172 -2.593,0.258c-0.164,0.017 -0.258,-0.026 -0.361,-0.172c-0.223,-0.326 -0.464,-0.635 -0.704,-0.945c-0.086,-0.111 -0.121,-0.206 -0.052,-0.343c0.137,-0.266 0.249,-0.55 0.369,-0.825c0.267,-0.61 0.541,-1.211 0.833,-1.872c-0.601,-0.412 -1.193,-0.816 -1.777,-1.228c-0.138,-0.095 -0.215,-0.052 -0.327,0.043l-2.035,1.769c-0.121,0.112 -0.215,0.112 -0.37,0.06c-0.369,-0.137 -0.747,-0.249 -1.125,-0.352c-0.172,-0.043 -0.249,-0.129 -0.283,-0.301c-0.198,-0.919 -0.413,-1.838 -0.627,-2.783l-2.371,0c-0.215,0.962 -0.429,1.881 -0.627,2.8c-0.034,0.172 -0.12,0.241 -0.275,0.284c-0.378,0.103 -0.756,0.215 -1.125,0.352c-0.163,0.06 -0.258,0.043 -0.387,-0.069c-0.669,-0.592 -1.357,-1.185 -2.035,-1.76c-0.06,-0.052 -0.215,-0.086 -0.275,-0.052c-0.61,0.404 -1.211,0.816 -1.812,1.237c0.412,0.919 0.79,1.795 1.185,2.654c0.077,0.172 0.052,0.275 -0.06,0.412c-0.215,0.249 -0.438,0.498 -0.593,0.79c-0.154,0.275 -0.335,0.318 -0.618,0.284c-0.842,-0.103 -1.692,-0.172 -2.543,-0.249c-0.077,-0.009 -0.214,0.051 -0.231,0.103c-0.258,0.678 -0.49,1.374 -0.731,2.053c0.129,0.077 0.198,0.12 0.267,0.163c0.764,0.438 1.52,0.884 2.284,1.314c0.146,0.086 0.198,0.172 0.189,0.343c-0.017,0.387 -0.017,0.773 0,1.151c0.009,0.172 -0.051,0.267 -0.197,0.344c-0.756,0.429 -1.512,0.859 -2.268,1.297c-0.086,0.051 -0.163,0.103 -0.283,0.18c0.223,0.653 0.455,1.28 0.661,1.924c0.078,0.232 0.206,0.249 0.413,0.223c0.867,-0.094 1.735,-0.171 2.593,-0.257c0.172,-0.017 0.284,0.026 0.378,0.18c0.198,0.301 0.404,0.593 0.636,0.859c0.146,0.172 0.163,0.301 0.077,0.507c-0.386,0.842 -0.764,1.7 -1.168,2.602c0.61,0.421 1.211,0.833 1.821,1.237c0.06,0.035 0.206,0 0.275,-0.051c0.687,-0.584 1.366,-1.168 2.035,-1.761c0.129,-0.112 0.224,-0.129 0.387,-0.069c0.361,0.138 0.73,0.249 1.099,0.352c0.181,0.052 0.267,0.121 0.31,0.318c0.197,0.919 0.412,1.83 0.627,2.783l2.37,0c0.215,-0.953 0.43,-1.872 0.627,-2.791c0.035,-0.172 0.112,-0.258 0.284,-0.301c0.378,-0.103 0.755,-0.215 1.125,-0.352c0.163,-0.06 0.257,-0.035 0.386,0.077c0.67,0.593 1.357,1.185 2.036,1.761c0.06,0.051 0.197,0.086 0.249,0.051c0.618,-0.403 1.228,-0.824 1.829,-1.245c-0.412,-0.936 -0.79,-1.804 -1.185,-2.671c-0.077,-0.163 -0.051,-0.258 0.052,-0.387c0.214,-0.257 0.446,-0.515 0.61,-0.807c0.154,-0.284 0.352,-0.301 0.627,-0.275c0.85,0.094 1.692,0.172 2.542,0.249c0.077,0.009 0.215,-0.069 0.24,-0.146c0.249,-0.67 0.481,-1.34 0.713,-2.01c-0.137,-0.06 -0.214,-0.12 -0.3,-0.163Zm-11.209,1.477c-2.001,-0.051 -3.65,-1.786 -3.59,-3.77c0.06,-2.087 1.778,-3.659 3.951,-3.608c2.001,0.052 3.65,1.787 3.59,3.797c-0.06,2.053 -1.804,3.633 -3.951,3.581Z" style="fill-rule:nonzero;"/><path d="M810.929,163.576c-0.44,-0.44 -0.499,-1.2 -0.18,-1.733c1.353,-2.239 2.14,-4.852 2.14,-7.658c0,-8.21 -6.678,-14.888 -14.889,-14.888c-8.211,0 -14.889,6.678 -14.889,14.888c0,8.211 6.678,14.889 14.889,14.889c3.026,0 5.838,-0.92 8.191,-2.479c0.52,-0.34 1.266,-0.3 1.706,0.14l4.978,4.978c0.034,0.033 0.074,0.067 0.114,0.1c0.06,0.053 0.46,0.433 0.879,0.853c0.42,0.42 1.127,0.413 1.56,-0.026l1.486,-1.487c0.44,-0.44 0.44,-1.153 0,-1.593l-5.985,-5.984Zm-3.918,-2.453c-0.494,0.633 -1.04,1.22 -1.653,1.74c-1.986,1.686 -4.552,2.705 -7.351,2.705c-6.278,0 -11.383,-5.105 -11.383,-11.383c0,-6.278 5.105,-11.383 11.383,-11.383c6.278,0 11.383,5.105 11.383,11.383c0,2.613 -0.893,5.019 -2.379,6.938Zm-31.297,-18.681c8.25,0 14.962,-6.711 14.962,-14.962c0,-8.257 -6.712,-14.968 -14.962,-14.968c-8.251,0 -14.962,6.711 -14.962,14.962c0,8.25 6.711,14.968 14.962,14.968Zm6.204,2.866c0.307,-0.54 0.12,-0.746 -0.459,-0.533c-1.813,0.68 -3.753,1.033 -5.745,1.033c-4.532,0 -8.771,-1.82 -11.917,-5.125l-0.186,-0.193c0,0 -0.293,-0.14 -0.427,-0.06l-0.233,0.133c-6.658,3.859 -11.037,10.577 -12.329,18.954l-0.02,0.153c0,0 0.026,0.207 0.073,0.28l0.093,0.127c6.658,7.971 15.515,12.363 24.939,12.363c3.972,0 7.844,-0.78 11.483,-2.273c0.573,-0.233 0.6,-0.713 0.093,-1.066c-4.658,-3.313 -7.691,-8.738 -7.691,-14.876c0.007,-3.252 0.847,-6.284 2.326,-8.917Z" style="fill-rule:nonzero;"/><path d="M209.119,112.761l-39.581,0c-1.815,0 -3.299,1.484 -3.299,3.299l0,46.181c0,1.815 1.484,3.299 3.299,3.299l39.581,0c1.816,0 3.3,-1.484 3.3,-3.299l0,-46.181c0,-1.815 -1.484,-3.299 -3.3,-3.299Zm-31.335,9.898l13.192,0c0.91,0 1.652,0.742 1.652,1.647c0,0.911 -0.742,1.653 -1.652,1.653l-13.192,0c-0.911,0 -1.647,-0.742 -1.647,-1.653c-0.006,-0.905 0.742,-1.647 1.647,-1.647Zm23.096,32.983l-23.096,0c-0.911,0 -1.647,-0.742 -1.647,-1.653c0,-0.905 0.742,-1.653 1.647,-1.653l23.09,0c0.911,0 1.647,0.742 1.647,1.653c0,0.911 -0.742,1.653 -1.641,1.653Zm0,-9.893l-23.096,0c-0.911,0 -1.647,-0.742 -1.647,-1.652c0,-0.905 0.742,-1.647 1.647,-1.647l23.09,0c0.911,0 1.647,0.742 1.647,1.647c0.006,0.904 -0.742,1.652 -1.641,1.652Zm0,-9.898l-23.096,0c-0.911,0 -1.647,-0.742 -1.647,-1.647c0,-0.911 0.742,-1.653 1.647,-1.653l23.09,0c0.911,0 1.647,0.742 1.647,1.653c0.006,0.905 -0.742,1.647 -1.641,1.647Z" style="fill-rule:nonzero;"/><path d="M478.999,493.01l0,52.025l-38.151,0l0,-6.936l6.936,0l0,-55.494l31.215,0l0,3.469l17.342,0l0,52.025l6.936,0l0,6.936l-13.873,0l0,-52.025l-10.405,0Zm-13.873,17.342l0,6.937l6.937,0l0,-6.937l-6.937,0Z" style="fill-rule:nonzero;"/><path d="M449.777,128.123c0,-2.129 0.564,-3.87 1.692,-5.222c1.128,-1.353 2.708,-2.029 4.739,-2.029c2.031,0 3.613,0.676 4.746,2.029c1.133,1.352 1.699,3.093 1.699,5.222l0,1.963c0,2.148 -0.566,3.891 -1.699,5.229c-1.133,1.338 -2.71,2.007 -4.731,2.007c-2.041,0 -3.626,-0.669 -4.754,-2.007c-1.128,-1.338 -1.692,-3.081 -1.692,-5.229l0,-1.963Zm4.146,1.963c0,1.22 0.171,2.177 0.513,2.871c0.341,0.693 0.937,1.04 1.787,1.04c0.82,0 1.403,-0.349 1.75,-1.048c0.347,-0.698 0.52,-1.652 0.52,-2.863l0,-1.963c0,-1.192 -0.173,-2.141 -0.52,-2.849c-0.347,-0.708 -0.935,-1.062 -1.765,-1.062c-0.83,0 -1.418,0.356 -1.765,1.069c-0.347,0.713 -0.52,1.66 -0.52,2.842l0,1.963Z" style="fill:#787878;fill-rule:nonzero;"/><path d="M472.336,124.959l-1.567,-0.044c-0.44,0 -0.804,0.107 -1.092,0.322c-0.288,0.215 -0.51,0.518 -0.666,0.908l0,10.869l-4.16,0l0,-15.849l3.881,0l0.162,2.124l0.073,0.029c0.254,-0.762 0.608,-1.36 1.062,-1.794c0.454,-0.435 0.984,-0.652 1.589,-0.652c0.186,0 0.383,0.017 0.593,0.051c0.21,0.034 0.393,0.076 0.55,0.125l-0.425,3.911Z" style="fill:#787878;fill-rule:nonzero;"/><path d="M473.61,129.177c0,-2.49 0.459,-4.497 1.377,-6.02c0.918,-1.524 2.212,-2.285 3.882,-2.285c0.615,0 1.172,0.146 1.67,0.439c0.498,0.293 0.942,0.713 1.333,1.26l0,-8.408l4.16,0l0,22.851l-3.618,0l-0.278,-1.728c-0.41,0.664 -0.887,1.169 -1.429,1.516c-0.542,0.347 -1.159,0.52 -1.853,0.52c-1.669,0 -2.961,-0.715 -3.874,-2.146c-0.913,-1.431 -1.37,-3.328 -1.37,-5.691l0,-0.308Zm4.16,0.308c0,1.416 0.164,2.52 0.491,3.311c0.327,0.791 0.882,1.186 1.663,1.186c0.429,0 0.805,-0.1 1.128,-0.3c0.322,-0.2 0.595,-0.491 0.82,-0.872l0,-7.207c-0.225,-0.439 -0.498,-0.781 -0.82,-1.025c-0.323,-0.244 -0.689,-0.366 -1.099,-0.366c-0.771,0 -1.328,0.454 -1.67,1.362c-0.342,0.908 -0.513,2.109 -0.513,3.603l0,0.308Z" style="fill:#787878;fill-rule:nonzero;"/><path d="M494.909,137.322c-1.992,0 -3.574,-0.654 -4.746,-1.963c-1.172,-1.309 -1.758,-2.959 -1.758,-4.951l0,-2.227c0,-2.138 0.545,-3.891 1.634,-5.258c1.088,-1.368 2.595,-2.051 4.519,-2.051c1.855,0 3.291,0.62 4.306,1.86c1.016,1.24 1.524,2.93 1.524,5.068l0,2.549l-7.837,0l0,0.059c0,1.045 0.237,1.904 0.71,2.578c0.474,0.674 1.189,1.011 2.146,1.011c0.781,0 1.416,-0.088 1.904,-0.264c0.489,-0.176 1.07,-0.469 1.744,-0.879l1.054,2.652c-0.547,0.527 -1.277,0.961 -2.19,1.303c-0.913,0.342 -1.916,0.513 -3.01,0.513Zm-0.351,-13.11c-0.664,0 -1.153,0.302 -1.465,0.908c-0.313,0.605 -0.489,1.421 -0.528,2.446l3.736,0l0,-0.586c0,-0.879 -0.137,-1.56 -0.41,-2.043c-0.274,-0.484 -0.718,-0.725 -1.333,-0.725Z" style="fill:#787878;fill-rule:nonzero;"/><path d="M509.968,124.959l-1.568,-0.044c-0.439,0 -0.803,0.107 -1.091,0.322c-0.288,0.215 -0.51,0.518 -0.666,0.908l0,10.869l-4.161,0l0,-15.849l3.882,0l0.161,2.124l0.074,0.029c0.254,-0.762 0.608,-1.36 1.062,-1.794c0.454,-0.435 0.983,-0.652 1.589,-0.652c0.186,0 0.383,0.017 0.593,0.051c0.21,0.034 0.393,0.076 0.55,0.125l-0.425,3.911Z" style="fill:#787878;fill-rule:nonzero;"/><path d="M518.977,132.869c0,-0.449 -0.176,-0.838 -0.528,-1.165c-0.351,-0.327 -1.025,-0.73 -2.021,-1.208c-1.592,-0.596 -2.786,-1.27 -3.582,-2.022c-0.796,-0.752 -1.194,-1.728 -1.194,-2.929c0,-1.289 0.511,-2.391 1.531,-3.304c1.021,-0.913 2.371,-1.369 4.05,-1.369c1.758,0 3.16,0.468 4.204,1.406c1.045,0.937 1.548,2.134 1.509,3.589l-0.044,0.088l-4.013,0c0,-0.664 -0.137,-1.192 -0.411,-1.582c-0.273,-0.391 -0.693,-0.586 -1.259,-0.586c-0.45,0 -0.83,0.151 -1.143,0.454c-0.312,0.303 -0.469,0.669 -0.469,1.099c0,0.468 0.157,0.847 0.469,1.135c0.313,0.288 0.991,0.681 2.036,1.179c1.66,0.566 2.891,1.238 3.692,2.014c0.8,0.776 1.201,1.795 1.201,3.054c0,1.348 -0.537,2.451 -1.611,3.311c-1.075,0.859 -2.486,1.289 -4.234,1.289c-1.826,0 -3.271,-0.532 -4.336,-1.597c-1.064,-1.064 -1.572,-2.265 -1.523,-3.603l0.029,-0.088l3.809,0c0.019,0.84 0.214,1.445 0.586,1.816c0.371,0.371 0.883,0.557 1.538,0.557c0.556,0 0.981,-0.137 1.274,-0.41c0.293,-0.274 0.44,-0.65 0.44,-1.128Z" style="fill:#787878;fill-rule:nonzero;"/><path d="M730.597,200.874c0,-0.449 -0.176,-0.837 -0.528,-1.165c-0.351,-0.327 -1.025,-0.73 -2.021,-1.208c-1.592,-0.596 -2.786,-1.27 -3.582,-2.022c-0.796,-0.751 -1.194,-1.728 -1.194,-2.929c0,-1.289 0.511,-2.39 1.531,-3.303c1.021,-0.914 2.371,-1.37 4.05,-1.37c1.758,0 3.16,0.469 4.205,1.406c1.045,0.938 1.547,2.134 1.508,3.589l-0.044,0.088l-4.013,0c0,-0.664 -0.137,-1.191 -0.41,-1.582c-0.274,-0.391 -0.694,-0.586 -1.26,-0.586c-0.449,0 -0.83,0.151 -1.143,0.454c-0.312,0.303 -0.468,0.669 -0.468,1.099c0,0.468 0.156,0.847 0.468,1.135c0.313,0.288 0.991,0.681 2.036,1.179c1.661,0.567 2.891,1.238 3.692,2.014c0.801,0.777 1.201,1.795 1.201,3.055c0,1.347 -0.537,2.451 -1.611,3.31c-1.075,0.859 -2.486,1.289 -4.234,1.289c-1.826,0 -3.271,-0.532 -4.336,-1.597c-1.064,-1.064 -1.572,-2.265 -1.523,-3.603l0.029,-0.088l3.809,0c0.019,0.84 0.215,1.445 0.586,1.816c0.371,0.372 0.883,0.557 1.538,0.557c0.556,0 0.981,-0.137 1.274,-0.41c0.293,-0.273 0.44,-0.649 0.44,-1.128Z" style="fill:#787878;fill-rule:nonzero;"/><path d="M744.425,205.02c-0.117,-0.264 -0.222,-0.552 -0.315,-0.865c-0.093,-0.312 -0.164,-0.63 -0.213,-0.952c-0.39,0.645 -0.866,1.16 -1.428,1.546c-0.561,0.385 -1.213,0.578 -1.955,0.578c-1.309,0 -2.356,-0.43 -3.142,-1.289c-0.787,-0.859 -1.18,-2.007 -1.18,-3.442c0,-1.553 0.501,-2.759 1.502,-3.618c1.001,-0.86 2.488,-1.29 4.46,-1.29l1.568,0l0,-1.289c0,-0.771 -0.14,-1.364 -0.418,-1.779c-0.278,-0.415 -0.696,-0.623 -1.252,-0.623c-0.469,0 -0.821,0.166 -1.055,0.498c-0.234,0.332 -0.352,0.816 -0.352,1.45l-4.028,-0.014l-0.044,-0.088c-0.049,-1.377 0.462,-2.549 1.531,-3.516c1.069,-0.967 2.478,-1.45 4.226,-1.45c1.65,0 2.991,0.481 4.021,1.443c1.03,0.962 1.545,2.331 1.545,4.109l0,6.416c0,0.781 0.054,1.509 0.162,2.182c0.107,0.674 0.273,1.338 0.498,1.993l-4.131,0Zm-2.71,-2.828c0.42,0 0.808,-0.112 1.164,-0.337c0.357,-0.224 0.638,-0.512 0.843,-0.864l0,-2.915l-1.568,0c-0.634,0 -1.093,0.22 -1.377,0.659c-0.283,0.44 -0.424,0.996 -0.424,1.67c0,0.528 0.122,0.957 0.366,1.289c0.244,0.332 0.576,0.498 0.996,0.498Z" style="fill:#787878;fill-rule:nonzero;"/><rect x="750.724" y="182.168" width="4.16" height="22.852" style="fill:#787878;fill-rule:nonzero;"/><path d="M763.951,205.327c-1.992,0 -3.574,-0.654 -4.746,-1.963c-1.172,-1.308 -1.758,-2.959 -1.758,-4.951l0,-2.226c0,-2.139 0.545,-3.892 1.634,-5.259c1.088,-1.367 2.595,-2.051 4.519,-2.051c1.855,0 3.291,0.62 4.306,1.86c1.016,1.241 1.524,2.93 1.524,5.069l0,2.548l-7.837,0l0,0.059c0,1.045 0.237,1.904 0.71,2.578c0.474,0.674 1.189,1.011 2.146,1.011c0.781,0 1.416,-0.088 1.904,-0.264c0.489,-0.176 1.07,-0.468 1.744,-0.879l1.054,2.652c-0.547,0.527 -1.277,0.962 -2.19,1.303c-0.913,0.342 -1.916,0.513 -3.01,0.513Zm-0.351,-13.11c-0.664,0 -1.153,0.303 -1.465,0.908c-0.313,0.605 -0.489,1.421 -0.528,2.446l3.736,0l0,-0.586c0,-0.879 -0.137,-1.56 -0.41,-2.043c-0.274,-0.484 -0.718,-0.725 -1.333,-0.725Z" style="fill:#787878;fill-rule:nonzero;"/><rect x="778.292" y="182.168" width="4.16" height="22.852" style="fill:#787878;fill-rule:nonzero;"/><path d="M791.52,205.327c-1.993,0 -3.575,-0.654 -4.747,-1.963c-1.171,-1.308 -1.757,-2.959 -1.757,-4.951l0,-2.226c0,-2.139 0.544,-3.892 1.633,-5.259c1.089,-1.367 2.595,-2.051 4.519,-2.051c1.855,0 3.291,0.62 4.307,1.86c1.015,1.241 1.523,2.93 1.523,5.069l0,2.548l-7.837,0l0,0.059c0,1.045 0.237,1.904 0.711,2.578c0.473,0.674 1.189,1.011 2.146,1.011c0.781,0 1.416,-0.088 1.904,-0.264c0.488,-0.176 1.069,-0.468 1.743,-0.879l1.055,2.652c-0.547,0.527 -1.277,0.962 -2.19,1.303c-0.913,0.342 -1.917,0.513 -3.01,0.513Zm-0.352,-13.11c-0.664,0 -1.152,0.303 -1.465,0.908c-0.312,0.605 -0.488,1.421 -0.527,2.446l3.735,0l0,-0.586c0,-0.879 -0.137,-1.56 -0.41,-2.043c-0.273,-0.484 -0.718,-0.725 -1.333,-0.725Z" style="fill:#787878;fill-rule:nonzero;"/><path d="M806.812,205.02c-0.117,-0.264 -0.222,-0.552 -0.314,-0.865c-0.093,-0.312 -0.164,-0.63 -0.213,-0.952c-0.39,0.645 -0.867,1.16 -1.428,1.546c-0.562,0.385 -1.213,0.578 -1.956,0.578c-1.308,0 -2.356,-0.43 -3.142,-1.289c-0.786,-0.859 -1.179,-2.007 -1.179,-3.442c0,-1.553 0.501,-2.759 1.502,-3.618c1,-0.86 2.487,-1.29 4.46,-1.29l1.567,0l0,-1.289c0,-0.771 -0.139,-1.364 -0.417,-1.779c-0.278,-0.415 -0.696,-0.623 -1.253,-0.623c-0.468,0 -0.82,0.166 -1.054,0.498c-0.235,0.332 -0.352,0.816 -0.352,1.45l-4.028,-0.014l-0.044,-0.088c-0.049,-1.377 0.461,-2.549 1.531,-3.516c1.069,-0.967 2.478,-1.45 4.226,-1.45c1.65,0 2.99,0.481 4.021,1.443c1.03,0.962 1.545,2.331 1.545,4.109l0,6.416c0,0.781 0.054,1.509 0.161,2.182c0.108,0.674 0.274,1.338 0.498,1.993l-4.131,0Zm-2.709,-2.828c0.419,0 0.808,-0.112 1.164,-0.337c0.357,-0.224 0.637,-0.512 0.842,-0.864l0,-2.915l-1.567,0c-0.635,0 -1.094,0.22 -1.377,0.659c-0.283,0.44 -0.425,0.996 -0.425,1.67c0,0.528 0.122,0.957 0.366,1.289c0.245,0.332 0.577,0.498 0.997,0.498Z" style="fill:#787878;fill-rule:nonzero;"/><path d="M812.364,197.183c0,-2.491 0.459,-4.497 1.377,-6.021c0.918,-1.523 2.212,-2.285 3.882,-2.285c0.615,0 1.172,0.146 1.67,0.439c0.498,0.293 0.942,0.713 1.333,1.26l0,-8.408l4.16,0l0,22.852l-3.618,0l-0.278,-1.729c-0.411,0.664 -0.887,1.169 -1.429,1.516c-0.542,0.347 -1.159,0.52 -1.853,0.52c-1.67,0 -2.961,-0.715 -3.874,-2.146c-0.913,-1.431 -1.37,-3.327 -1.37,-5.691l0,-0.307Zm4.16,0.307c0,1.416 0.164,2.52 0.491,3.311c0.327,0.791 0.881,1.186 1.663,1.186c0.429,0 0.805,-0.1 1.128,-0.3c0.322,-0.2 0.595,-0.491 0.82,-0.872l0,-7.207c-0.225,-0.439 -0.498,-0.781 -0.82,-1.025c-0.323,-0.244 -0.689,-0.366 -1.099,-0.366c-0.771,0 -1.328,0.454 -1.67,1.362c-0.342,0.908 -0.513,2.109 -0.513,3.604l0,0.307Z" style="fill:#787878;fill-rule:nonzero;"/><path d="M834.395,200.874c0,-0.449 -0.175,-0.837 -0.527,-1.165c-0.351,-0.327 -1.025,-0.73 -2.021,-1.208c-1.592,-0.596 -2.786,-1.27 -3.582,-2.022c-0.796,-0.751 -1.194,-1.728 -1.194,-2.929c0,-1.289 0.511,-2.39 1.531,-3.303c1.021,-0.914 2.371,-1.37 4.05,-1.37c1.758,0 3.16,0.469 4.204,1.406c1.045,0.938 1.548,2.134 1.509,3.589l-0.044,0.088l-4.013,0c0,-0.664 -0.137,-1.191 -0.411,-1.582c-0.273,-0.391 -0.693,-0.586 -1.259,-0.586c-0.45,0 -0.83,0.151 -1.143,0.454c-0.312,0.303 -0.469,0.669 -0.469,1.099c0,0.468 0.157,0.847 0.469,1.135c0.313,0.288 0.991,0.681 2.036,1.179c1.66,0.567 2.891,1.238 3.692,2.014c0.8,0.777 1.201,1.795 1.201,3.055c0,1.347 -0.537,2.451 -1.612,3.31c-1.074,0.859 -2.485,1.289 -4.233,1.289c-1.826,0 -3.271,-0.532 -4.336,-1.597c-1.064,-1.064 -1.572,-2.265 -1.523,-3.603l0.029,-0.088l3.809,0c0.019,0.84 0.214,1.445 0.586,1.816c0.371,0.372 0.883,0.557 1.538,0.557c0.556,0 0.981,-0.137 1.274,-0.41c0.293,-0.273 0.439,-0.649 0.439,-1.128Z" style="fill:#787878;fill-rule:nonzero;"/><path d="M141.277,197.37l0.088,-0.015l1.48,-8.979l3.852,0l-3.252,15.849l-3.471,0l-2.212,-8.54l-0.088,0l-2.212,8.54l-3.472,0l-3.281,-15.849l3.882,0l1.479,9.023l0.088,0l2.212,-9.023l2.695,0l2.212,8.994Z" style="fill:#787878;fill-rule:nonzero;"/><path d="M154.622,204.533c-1.992,0 -3.574,-0.654 -4.746,-1.963c-1.172,-1.309 -1.758,-2.959 -1.758,-4.951l0,-2.227c0,-2.138 0.545,-3.891 1.633,-5.259c1.089,-1.367 2.596,-2.05 4.519,-2.05c1.856,0 3.291,0.62 4.307,1.86c1.016,1.24 1.524,2.93 1.524,5.068l0,2.549l-7.837,0l0,0.059c0,1.045 0.236,1.904 0.71,2.578c0.474,0.674 1.189,1.011 2.146,1.011c0.781,0 1.416,-0.088 1.904,-0.264c0.489,-0.176 1.07,-0.469 1.744,-0.879l1.054,2.651c-0.547,0.528 -1.277,0.962 -2.19,1.304c-0.913,0.342 -1.916,0.513 -3.01,0.513Zm-0.352,-13.11c-0.664,0 -1.152,0.302 -1.464,0.908c-0.313,0.605 -0.489,1.421 -0.528,2.446l3.736,0l0,-0.586c0,-0.879 -0.137,-1.56 -0.411,-2.043c-0.273,-0.484 -0.717,-0.725 -1.333,-0.725Z" style="fill:#787878;fill-rule:nonzero;"/><path d="M174.617,197.516c0,2.139 -0.442,3.843 -1.326,5.113c-0.883,1.269 -2.18,1.904 -3.889,1.904c-0.742,0 -1.389,-0.171 -1.941,-0.513c-0.551,-0.342 -1.023,-0.84 -1.413,-1.494l-0.249,1.699l-3.604,0l0,-22.851l4.16,0l0,8.349c0.372,-0.527 0.809,-0.932 1.311,-1.216c0.503,-0.283 1.072,-0.424 1.707,-0.424c1.719,0 3.022,0.661 3.911,1.985c0.889,1.323 1.333,3.088 1.333,5.295l0,2.153Zm-4.145,-2.153c0,-1.24 -0.154,-2.207 -0.462,-2.9c-0.307,-0.694 -0.876,-1.04 -1.706,-1.04c-0.45,0 -0.835,0.112 -1.158,0.336c-0.322,0.225 -0.585,0.542 -0.791,0.953l0,7.397c0.196,0.361 0.457,0.632 0.784,0.813c0.327,0.181 0.72,0.271 1.179,0.271c0.84,0 1.409,-0.31 1.707,-0.93c0.298,-0.62 0.447,-1.536 0.447,-2.747l0,-2.153Z" style="fill:#787878;fill-rule:nonzero;"/><path d="M184.285,204.225l0,-12.832l-1.948,0l0,-3.017l1.948,0l0,-1.758c0,-1.778 0.459,-3.147 1.377,-4.109c0.918,-0.962 2.207,-1.443 3.867,-1.443c0.323,0 0.645,0.027 0.967,0.081c0.322,0.053 0.693,0.129 1.113,0.227l-0.351,3.193c-0.196,-0.039 -0.384,-0.073 -0.564,-0.102c-0.181,-0.03 -0.393,-0.044 -0.637,-0.044c-0.528,0 -0.928,0.19 -1.202,0.571c-0.273,0.381 -0.41,0.923 -0.41,1.626l0,1.758l2.549,0l0,3.017l-2.549,0l0,12.832l-4.16,0Z" style="fill:#787878;fill-rule:nonzero;"/><path d="M192.327,195.334c0,-2.129 0.564,-3.87 1.692,-5.223c1.128,-1.352 2.708,-2.028 4.739,-2.028c2.031,0 3.613,0.676 4.746,2.028c1.133,1.353 1.699,3.094 1.699,5.223l0,1.963c0,2.148 -0.566,3.891 -1.699,5.229c-1.133,1.338 -2.71,2.007 -4.732,2.007c-2.041,0 -3.625,-0.669 -4.753,-2.007c-1.128,-1.338 -1.692,-3.081 -1.692,-5.229l0,-1.963Zm4.146,1.963c0,1.22 0.171,2.177 0.512,2.871c0.342,0.693 0.938,1.04 1.787,1.04c0.821,0 1.404,-0.349 1.751,-1.048c0.347,-0.698 0.52,-1.653 0.52,-2.863l0,-1.963c0,-1.192 -0.173,-2.141 -0.52,-2.849c-0.347,-0.708 -0.935,-1.062 -1.765,-1.062c-0.83,0 -1.419,0.356 -1.765,1.069c-0.347,0.713 -0.52,1.66 -0.52,2.842l0,1.963Z" style="fill:#787878;fill-rule:nonzero;"/><path d="M214.886,192.17l-1.568,-0.044c-0.439,0 -0.803,0.107 -1.091,0.322c-0.288,0.215 -0.51,0.517 -0.666,0.908l0,10.869l-4.161,0l0,-15.849l3.882,0l0.161,2.124l0.074,0.029c0.253,-0.762 0.607,-1.36 1.062,-1.794c0.454,-0.435 0.983,-0.652 1.589,-0.652c0.185,0 0.383,0.017 0.593,0.051c0.21,0.034 0.393,0.076 0.55,0.124l-0.425,3.912Z" style="fill:#787878;fill-rule:nonzero;"/><path d="M220.892,188.376l0.161,2.021c0.42,-0.742 0.947,-1.313 1.582,-1.714c0.634,-0.4 1.362,-0.6 2.182,-0.6c0.801,0 1.499,0.212 2.095,0.637c0.596,0.425 1.05,1.072 1.362,1.941c0.411,-0.821 0.938,-1.455 1.582,-1.905c0.645,-0.449 1.397,-0.673 2.256,-0.673c1.309,0 2.342,0.539 3.098,1.618c0.757,1.079 1.136,2.727 1.136,4.944l0,9.58l-4.175,0l0,-9.58c0,-1.221 -0.132,-2.063 -0.396,-2.527c-0.263,-0.464 -0.673,-0.695 -1.23,-0.695c-0.401,0 -0.757,0.117 -1.069,0.351c-0.313,0.234 -0.572,0.557 -0.777,0.967c0.01,0.185 0.02,0.369 0.029,0.549c0.01,0.181 0.015,0.369 0.015,0.564l0,10.371l-4.145,0l0,-9.58c0,-1.211 -0.135,-2.051 -0.403,-2.519c-0.269,-0.469 -0.686,-0.703 -1.253,-0.703c-0.381,0 -0.72,0.095 -1.018,0.285c-0.298,0.191 -0.554,0.457 -0.769,0.798l0,11.719l-4.145,0l0,-15.849l3.882,0Z" style="fill:#787878;fill-rule:nonzero;"/><path d="M245.97,200.08c0,-0.449 -0.176,-0.838 -0.528,-1.165c-0.351,-0.327 -1.025,-0.73 -2.021,-1.208c-1.592,-0.596 -2.786,-1.27 -3.582,-2.022c-0.796,-0.752 -1.194,-1.728 -1.194,-2.929c0,-1.29 0.511,-2.391 1.531,-3.304c1.021,-0.913 2.371,-1.369 4.051,-1.369c1.757,0 3.159,0.468 4.204,1.406c1.045,0.937 1.547,2.134 1.508,3.589l-0.044,0.088l-4.013,0c0,-0.664 -0.137,-1.192 -0.41,-1.582c-0.274,-0.391 -0.694,-0.586 -1.26,-0.586c-0.449,0 -0.83,0.151 -1.143,0.454c-0.312,0.303 -0.468,0.669 -0.468,1.098c0,0.469 0.156,0.848 0.468,1.136c0.313,0.288 0.992,0.681 2.036,1.179c1.661,0.566 2.891,1.238 3.692,2.014c0.801,0.776 1.201,1.794 1.201,3.054c0,1.348 -0.537,2.451 -1.611,3.311c-1.075,0.859 -2.486,1.289 -4.234,1.289c-1.826,0 -3.271,-0.532 -4.336,-1.597c-1.064,-1.064 -1.572,-2.265 -1.523,-3.603l0.029,-0.088l3.809,0c0.019,0.84 0.215,1.445 0.586,1.816c0.371,0.371 0.884,0.557 1.538,0.557c0.556,0 0.981,-0.137 1.274,-0.41c0.293,-0.274 0.44,-0.65 0.44,-1.128Z" style="fill:#787878;fill-rule:nonzero;"/><path d="M112.607,484.687c0,-0.45 -0.176,-0.838 -0.527,-1.165c-0.352,-0.327 -1.026,-0.73 -2.022,-1.209c-1.592,-0.595 -2.785,-1.269 -3.581,-2.021c-0.796,-0.752 -1.194,-1.729 -1.194,-2.93c0,-1.289 0.51,-2.39 1.531,-3.303c1.02,-0.913 2.37,-1.37 4.05,-1.37c1.758,0 3.159,0.469 4.204,1.407c1.045,0.937 1.548,2.133 1.509,3.589l-0.044,0.087l-4.014,0c0,-0.664 -0.137,-1.191 -0.41,-1.582c-0.273,-0.39 -0.693,-0.586 -1.26,-0.586c-0.449,0 -0.83,0.152 -1.142,0.455c-0.313,0.302 -0.469,0.669 -0.469,1.098c0,0.469 0.156,0.847 0.469,1.135c0.312,0.289 0.991,0.682 2.036,1.18c1.66,0.566 2.89,1.237 3.691,2.014c0.801,0.776 1.201,1.794 1.201,3.054c0,1.348 -0.537,2.451 -1.611,3.311c-1.074,0.859 -2.485,1.289 -4.233,1.289c-1.827,0 -3.272,-0.533 -4.336,-1.597c-1.065,-1.064 -1.573,-2.266 -1.524,-3.604l0.03,-0.087l3.808,0c0.02,0.839 0.215,1.445 0.586,1.816c0.371,0.371 0.884,0.557 1.538,0.557c0.557,0 0.982,-0.137 1.275,-0.411c0.293,-0.273 0.439,-0.649 0.439,-1.127Z" style="fill:#787878;fill-rule:nonzero;"/><path d="M126.757,487.001c-0.429,0.693 -0.949,1.223 -1.56,1.589c-0.61,0.367 -1.301,0.55 -2.072,0.55c-1.416,0 -2.522,-0.535 -3.318,-1.604c-0.796,-1.07 -1.194,-2.727 -1.194,-4.974l0,-9.58l4.16,0l0,9.61c0,1.123 0.137,1.938 0.41,2.446c0.274,0.508 0.679,0.762 1.216,0.762c0.459,0 0.862,-0.086 1.209,-0.257c0.346,-0.17 0.642,-0.422 0.886,-0.754l0,-11.807l4.175,0l0,15.85l-3.663,0l-0.249,-1.831Z" style="fill:#787878;fill-rule:nonzero;"/><path d="M145.713,482.123c0,2.139 -0.442,3.843 -1.326,5.112c-0.884,1.27 -2.18,1.905 -3.889,1.905c-0.743,0 -1.389,-0.171 -1.941,-0.513c-0.552,-0.342 -1.023,-0.84 -1.414,-1.494l-0.249,1.699l-3.603,0l0,-22.852l4.16,0l0,8.35c0.371,-0.527 0.808,-0.933 1.311,-1.216c0.503,-0.283 1.072,-0.425 1.706,-0.425c1.719,0 3.023,0.662 3.912,1.985c0.888,1.324 1.333,3.089 1.333,5.296l0,2.153Zm-4.146,-2.153c0,-1.241 -0.154,-2.207 -0.461,-2.901c-0.308,-0.693 -0.877,-1.04 -1.707,-1.04c-0.449,0 -0.835,0.113 -1.157,0.337c-0.322,0.225 -0.586,0.542 -0.791,0.952l0,7.398c0.195,0.361 0.456,0.632 0.783,0.813c0.328,0.18 0.721,0.271 1.18,0.271c0.84,0 1.408,-0.31 1.706,-0.93c0.298,-0.62 0.447,-1.536 0.447,-2.747l0,-2.153Z" style="fill:#787878;fill-rule:nonzero;"/><path d="M154.765,484.687c0,-0.45 -0.176,-0.838 -0.527,-1.165c-0.352,-0.327 -1.025,-0.73 -2.022,-1.209c-1.591,-0.595 -2.785,-1.269 -3.581,-2.021c-0.796,-0.752 -1.194,-1.729 -1.194,-2.93c0,-1.289 0.51,-2.39 1.531,-3.303c1.02,-0.913 2.37,-1.37 4.05,-1.37c1.758,0 3.159,0.469 4.204,1.407c1.045,0.937 1.548,2.133 1.509,3.589l-0.044,0.087l-4.014,0c0,-0.664 -0.136,-1.191 -0.41,-1.582c-0.273,-0.39 -0.693,-0.586 -1.26,-0.586c-0.449,0 -0.83,0.152 -1.142,0.455c-0.313,0.302 -0.469,0.669 -0.469,1.098c0,0.469 0.156,0.847 0.469,1.135c0.312,0.289 0.991,0.682 2.036,1.18c1.66,0.566 2.891,1.237 3.691,2.014c0.801,0.776 1.202,1.794 1.202,3.054c0,1.348 -0.538,2.451 -1.612,3.311c-1.074,0.859 -2.485,1.289 -4.233,1.289c-1.826,0 -3.272,-0.533 -4.336,-1.597c-1.065,-1.064 -1.572,-2.266 -1.524,-3.604l0.03,-0.087l3.808,0c0.02,0.839 0.215,1.445 0.586,1.816c0.371,0.371 0.884,0.557 1.538,0.557c0.557,0 0.982,-0.137 1.275,-0.411c0.293,-0.273 0.439,-0.649 0.439,-1.127Z" style="fill:#787878;fill-rule:nonzero;"/><path d="M166.66,485.814c0.566,0 0.993,-0.21 1.282,-0.629c0.288,-0.42 0.432,-1.026 0.432,-1.817l3.779,0l0.044,0.088c0.029,1.66 -0.481,3.023 -1.531,4.087c-1.05,1.064 -2.385,1.597 -4.006,1.597c-2.051,0 -3.626,-0.669 -4.724,-2.007c-1.099,-1.338 -1.648,-3.067 -1.648,-5.186l0,-2.036c0,-2.109 0.547,-3.84 1.64,-5.193c1.094,-1.352 2.661,-2.029 4.702,-2.029c1.719,0 3.084,0.552 4.095,1.656c1.01,1.103 1.501,2.592 1.472,4.467l-0.029,0.074l-3.794,0c0,-0.86 -0.144,-1.551 -0.432,-2.073c-0.289,-0.522 -0.726,-0.784 -1.312,-0.784c-0.83,0 -1.401,0.352 -1.713,1.055c-0.313,0.703 -0.469,1.645 -0.469,2.827l0,2.036c0,1.211 0.156,2.158 0.469,2.842c0.312,0.684 0.893,1.025 1.743,1.025Z" style="fill:#787878;fill-rule:nonzero;"/><path d="M181.689,476.776l-1.567,-0.044c-0.44,0 -0.804,0.108 -1.092,0.323c-0.288,0.215 -0.51,0.517 -0.666,0.908l0,10.869l-4.16,0l0,-15.85l3.882,0l0.161,2.124l0.073,0.03c0.254,-0.762 0.608,-1.36 1.062,-1.795c0.454,-0.434 0.984,-0.652 1.589,-0.652c0.186,0 0.384,0.018 0.594,0.052c0.21,0.034 0.393,0.075 0.549,0.124l-0.425,3.911Z" style="fill:#787878;fill-rule:nonzero;"/><path d="M188.149,488.832l-4.16,0l0,-15.85l4.16,0l0,15.85Zm0,-19.673l-4.16,0l0,-3.179l4.16,0l0,3.179Z" style="fill:#787878;fill-rule:nonzero;"/><path d="M203.471,482.123c0,2.109 -0.459,3.806 -1.377,5.09c-0.918,1.285 -2.202,1.927 -3.852,1.927c-0.645,0 -1.218,-0.13 -1.721,-0.389c-0.503,-0.258 -0.94,-0.642 -1.311,-1.149l0,7.324l-4.161,0l0,-21.944l3.853,0l0.146,1.568c0.381,-0.596 0.833,-1.055 1.355,-1.377c0.523,-0.322 1.126,-0.484 1.81,-0.484c1.669,0 2.963,0.686 3.881,2.059c0.918,1.372 1.377,3.181 1.377,5.427l0,1.948Zm-4.16,-1.948c0,-1.25 -0.176,-2.254 -0.527,-3.01c-0.352,-0.757 -0.904,-1.136 -1.655,-1.136c-0.44,0 -0.821,0.11 -1.143,0.33c-0.322,0.22 -0.581,0.53 -0.776,0.93l0,7.471c0.195,0.351 0.451,0.615 0.769,0.791c0.317,0.176 0.705,0.263 1.164,0.263c0.772,0 1.326,-0.327 1.663,-0.981c0.337,-0.654 0.505,-1.558 0.505,-2.71l0,-1.948Z" style="fill:#787878;fill-rule:nonzero;"/><path d="M210.576,469.042l0,3.94l2.197,0l0,3.018l-2.197,0l0,7.954c0,0.645 0.093,1.106 0.278,1.384c0.186,0.279 0.44,0.418 0.762,0.418c0.254,0 0.469,-0.012 0.644,-0.037c0.176,-0.024 0.371,-0.066 0.586,-0.124l0.323,3.164c-0.44,0.137 -0.86,0.234 -1.26,0.293c-0.401,0.058 -0.855,0.088 -1.362,0.088c-1.338,0 -2.361,-0.413 -3.069,-1.238c-0.708,-0.825 -1.062,-2.136 -1.062,-3.933l0,-7.969l-1.875,0l0,-3.018l1.875,0l0,-3.94l4.16,0Z" style="fill:#787878;fill-rule:nonzero;"/><path d="M219.467,488.832l-4.16,0l0,-15.85l4.16,0l0,15.85Zm0,-19.673l-4.16,0l0,-3.179l4.16,0l0,3.179Z" style="fill:#787878;fill-rule:nonzero;"/><path d="M221.87,479.94c0,-2.128 0.564,-3.869 1.692,-5.222c1.128,-1.352 2.707,-2.029 4.738,-2.029c2.032,0 3.614,0.677 4.747,2.029c1.132,1.353 1.699,3.094 1.699,5.222l0,1.963c0,2.149 -0.567,3.892 -1.699,5.23c-1.133,1.338 -2.71,2.007 -4.732,2.007c-2.041,0 -3.625,-0.669 -4.753,-2.007c-1.128,-1.338 -1.692,-3.081 -1.692,-5.23l0,-1.963Zm4.145,1.963c0,1.221 0.171,2.178 0.513,2.871c0.342,0.694 0.937,1.04 1.787,1.04c0.82,0 1.404,-0.349 1.751,-1.047c0.346,-0.698 0.52,-1.653 0.52,-2.864l0,-1.963c0,-1.191 -0.174,-2.141 -0.52,-2.849c-0.347,-0.708 -0.936,-1.062 -1.766,-1.062c-0.83,0 -1.418,0.357 -1.765,1.07c-0.346,0.713 -0.52,1.66 -0.52,2.841l0,1.963Z" style="fill:#787878;fill-rule:nonzero;"/><path d="M240.752,472.982l0.175,2.183c0.44,-0.781 0.979,-1.389 1.619,-1.824c0.64,-0.434 1.345,-0.652 2.117,-0.652c1.318,0 2.356,0.508 3.113,1.524c0.756,1.016 1.135,2.612 1.135,4.79l0,9.829l-4.175,0l0,-9.829c0,-1.094 -0.154,-1.863 -0.461,-2.307c-0.308,-0.445 -0.784,-0.667 -1.429,-0.667c-0.371,0 -0.713,0.098 -1.025,0.293c-0.313,0.196 -0.576,0.464 -0.791,0.806l0,11.704l-4.16,0l0,-15.85l3.882,0Z" style="fill:#787878;fill-rule:nonzero;"/><path d="M258.418,484.687c0,-0.45 -0.176,-0.838 -0.528,-1.165c-0.351,-0.327 -1.025,-0.73 -2.021,-1.209c-1.592,-0.595 -2.786,-1.269 -3.582,-2.021c-0.796,-0.752 -1.194,-1.729 -1.194,-2.93c0,-1.289 0.511,-2.39 1.531,-3.303c1.021,-0.913 2.371,-1.37 4.05,-1.37c1.758,0 3.16,0.469 4.205,1.407c1.044,0.937 1.547,2.133 1.508,3.589l-0.044,0.087l-4.013,0c0,-0.664 -0.137,-1.191 -0.41,-1.582c-0.274,-0.39 -0.694,-0.586 -1.26,-0.586c-0.449,0 -0.83,0.152 -1.143,0.455c-0.312,0.302 -0.469,0.669 -0.469,1.098c0,0.469 0.157,0.847 0.469,1.135c0.313,0.289 0.991,0.682 2.036,1.18c1.66,0.566 2.891,1.237 3.692,2.014c0.801,0.776 1.201,1.794 1.201,3.054c0,1.348 -0.537,2.451 -1.611,3.311c-1.075,0.859 -2.486,1.289 -4.234,1.289c-1.826,0 -3.271,-0.533 -4.336,-1.597c-1.064,-1.064 -1.572,-2.266 -1.523,-3.604l0.029,-0.087l3.809,0c0.019,0.839 0.215,1.445 0.586,1.816c0.371,0.371 0.883,0.557 1.538,0.557c0.556,0 0.981,-0.137 1.274,-0.411c0.293,-0.273 0.44,-0.649 0.44,-1.127Z" style="fill:#787878;fill-rule:nonzero;"/><path d="M426.722,577.239c0,-0.45 -0.176,-0.838 -0.528,-1.165c-0.351,-0.327 -1.025,-0.73 -2.021,-1.208c-1.592,-0.596 -2.786,-1.27 -3.582,-2.022c-0.796,-0.752 -1.194,-1.728 -1.194,-2.93c0,-1.289 0.511,-2.39 1.531,-3.303c1.021,-0.913 2.371,-1.369 4.05,-1.369c1.758,0 3.16,0.468 4.205,1.406c1.045,0.937 1.547,2.134 1.508,3.589l-0.044,0.088l-4.013,0c0,-0.665 -0.137,-1.192 -0.41,-1.582c-0.274,-0.391 -0.694,-0.586 -1.26,-0.586c-0.449,0 -0.83,0.151 -1.143,0.454c-0.312,0.302 -0.468,0.669 -0.468,1.098c0,0.469 0.156,0.847 0.468,1.136c0.313,0.288 0.991,0.681 2.036,1.179c1.661,0.566 2.891,1.238 3.692,2.014c0.801,0.776 1.201,1.794 1.201,3.054c0,1.348 -0.537,2.451 -1.611,3.311c-1.075,0.859 -2.486,1.289 -4.234,1.289c-1.826,0 -3.271,-0.532 -4.336,-1.597c-1.064,-1.064 -1.572,-2.266 -1.523,-3.603l0.029,-0.088l3.809,0c0.019,0.839 0.215,1.445 0.586,1.816c0.371,0.371 0.883,0.557 1.538,0.557c0.556,0 0.981,-0.137 1.274,-0.41c0.293,-0.274 0.44,-0.65 0.44,-1.128Z" style="fill:#787878;fill-rule:nonzero;"/><path d="M437.181,581.384l-4.161,0l0,-15.849l4.161,0l0,15.849Zm0,-19.673l-4.161,0l0,-3.178l4.161,0l0,3.178Z" style="fill:#787878;fill-rule:nonzero;"/><path d="M445.032,561.594l0,3.941l2.197,0l0,3.017l-2.197,0l0,7.954c0,0.645 0.093,1.106 0.279,1.384c0.185,0.279 0.439,0.418 0.761,0.418c0.254,0 0.469,-0.012 0.645,-0.037c0.176,-0.024 0.371,-0.066 0.586,-0.124l0.322,3.164c-0.439,0.137 -0.859,0.234 -1.26,0.293c-0.4,0.058 -0.854,0.088 -1.362,0.088c-1.338,0 -2.361,-0.413 -3.069,-1.238c-0.708,-0.825 -1.062,-2.136 -1.062,-3.933l0,-7.969l-1.875,0l0,-3.017l1.875,0l0,-3.941l4.16,0Z" style="fill:#787878;fill-rule:nonzero;"/><path d="M455.74,581.692c-1.992,0 -3.574,-0.655 -4.746,-1.963c-1.172,-1.309 -1.758,-2.959 -1.758,-4.951l0,-2.227c0,-2.139 0.545,-3.891 1.634,-5.259c1.088,-1.367 2.595,-2.05 4.519,-2.05c1.855,0 3.291,0.62 4.306,1.86c1.016,1.24 1.524,2.93 1.524,5.068l0,2.549l-7.837,0l0,0.059c0,1.045 0.237,1.904 0.71,2.578c0.474,0.674 1.189,1.011 2.146,1.011c0.781,0 1.416,-0.088 1.905,-0.264c0.488,-0.176 1.069,-0.469 1.743,-0.879l1.054,2.651c-0.546,0.528 -1.276,0.962 -2.19,1.304c-0.913,0.342 -1.916,0.513 -3.01,0.513Zm-0.351,-13.111c-0.664,0 -1.153,0.303 -1.465,0.909c-0.313,0.605 -0.488,1.42 -0.528,2.446l3.736,0l0,-0.586c0,-0.879 -0.137,-1.56 -0.41,-2.044c-0.274,-0.483 -0.718,-0.725 -1.333,-0.725Z" style="fill:#787878;fill-rule:nonzero;"/><path d="M474.974,575.408l0.19,1.201l0.088,0l0.205,-1.201l1.831,-9.873l4.351,0l-4.395,15.849l-4.072,0l-4.409,-15.849l4.35,0l1.861,9.873Z" style="fill:#787878;fill-rule:nonzero;"/><path d="M487.557,581.384l-4.161,0l0,-15.849l4.161,0l0,15.849Zm0,-19.673l-4.161,0l0,-3.178l4.161,0l0,3.178Z" style="fill:#787878;fill-rule:nonzero;"/><path d="M497.356,577.239c0,-0.45 -0.175,-0.838 -0.527,-1.165c-0.351,-0.327 -1.025,-0.73 -2.021,-1.208c-1.592,-0.596 -2.786,-1.27 -3.582,-2.022c-0.796,-0.752 -1.194,-1.728 -1.194,-2.93c0,-1.289 0.51,-2.39 1.531,-3.303c1.02,-0.913 2.371,-1.369 4.05,-1.369c1.758,0 3.159,0.468 4.204,1.406c1.045,0.937 1.548,2.134 1.509,3.589l-0.044,0.088l-4.013,0c0,-0.665 -0.137,-1.192 -0.411,-1.582c-0.273,-0.391 -0.693,-0.586 -1.259,-0.586c-0.45,0 -0.83,0.151 -1.143,0.454c-0.312,0.302 -0.469,0.669 -0.469,1.098c0,0.469 0.157,0.847 0.469,1.136c0.313,0.288 0.991,0.681 2.036,1.179c1.66,0.566 2.891,1.238 3.692,2.014c0.8,0.776 1.201,1.794 1.201,3.054c0,1.348 -0.537,2.451 -1.612,3.311c-1.074,0.859 -2.485,1.289 -4.233,1.289c-1.826,0 -3.271,-0.532 -4.336,-1.597c-1.064,-1.064 -1.572,-2.266 -1.523,-3.603l0.029,-0.088l3.809,0c0.019,0.839 0.214,1.445 0.585,1.816c0.372,0.371 0.884,0.557 1.539,0.557c0.556,0 0.981,-0.137 1.274,-0.41c0.293,-0.274 0.439,-0.65 0.439,-1.128Z" style="fill:#787878;fill-rule:nonzero;"/><path d="M507.815,581.384l-4.16,0l0,-15.849l4.16,0l0,15.849Zm0,-19.673l-4.16,0l0,-3.178l4.16,0l0,3.178Z" style="fill:#787878;fill-rule:nonzero;"/><path d="M515.667,561.594l0,3.941l2.197,0l0,3.017l-2.197,0l0,7.954c0,0.645 0.093,1.106 0.278,1.384c0.186,0.279 0.44,0.418 0.762,0.418c0.254,0 0.469,-0.012 0.645,-0.037c0.175,-0.024 0.371,-0.066 0.585,-0.124l0.323,3.164c-0.44,0.137 -0.86,0.234 -1.26,0.293c-0.4,0.058 -0.855,0.088 -1.362,0.088c-1.338,0 -2.361,-0.413 -3.069,-1.238c-0.708,-0.825 -1.062,-2.136 -1.062,-3.933l0,-7.969l-1.875,0l0,-3.017l1.875,0l0,-3.941l4.16,0Z" style="fill:#787878;fill-rule:nonzero;"/><path d="M527.107,577.239c0,-0.45 -0.175,-0.838 -0.527,-1.165c-0.352,-0.327 -1.025,-0.73 -2.021,-1.208c-1.592,-0.596 -2.786,-1.27 -3.582,-2.022c-0.796,-0.752 -1.194,-1.728 -1.194,-2.93c0,-1.289 0.51,-2.39 1.531,-3.303c1.02,-0.913 2.371,-1.369 4.05,-1.369c1.758,0 3.159,0.468 4.204,1.406c1.045,0.937 1.548,2.134 1.509,3.589l-0.044,0.088l-4.014,0c0,-0.665 -0.136,-1.192 -0.41,-1.582c-0.273,-0.391 -0.693,-0.586 -1.259,-0.586c-0.45,0 -0.831,0.151 -1.143,0.454c-0.313,0.302 -0.469,0.669 -0.469,1.098c0,0.469 0.156,0.847 0.469,1.136c0.312,0.288 0.991,0.681 2.036,1.179c1.66,0.566 2.891,1.238 3.692,2.014c0.8,0.776 1.201,1.794 1.201,3.054c0,1.348 -0.537,2.451 -1.612,3.311c-1.074,0.859 -2.485,1.289 -4.233,1.289c-1.826,0 -3.272,-0.532 -4.336,-1.597c-1.064,-1.064 -1.572,-2.266 -1.523,-3.603l0.029,-0.088l3.808,0c0.02,0.839 0.215,1.445 0.586,1.816c0.372,0.371 0.884,0.557 1.539,0.557c0.556,0 0.981,-0.137 1.274,-0.41c0.293,-0.274 0.439,-0.65 0.439,-1.128Z" style="fill:#787878;fill-rule:nonzero;"/><path d="M724.604,496.869c-1.992,0 -3.574,-0.654 -4.746,-1.963c-1.172,-1.309 -1.758,-2.959 -1.758,-4.951l0,-2.227c0,-2.138 0.544,-3.891 1.633,-5.259c1.089,-1.367 2.595,-2.05 4.519,-2.05c1.856,0 3.291,0.62 4.307,1.86c1.016,1.24 1.523,2.93 1.523,5.068l0,2.549l-7.837,0l0,0.059c0,1.045 0.237,1.904 0.711,2.578c0.474,0.674 1.189,1.011 2.146,1.011c0.781,0 1.416,-0.088 1.904,-0.264c0.488,-0.176 1.069,-0.469 1.743,-0.879l1.055,2.651c-0.547,0.528 -1.277,0.962 -2.19,1.304c-0.913,0.342 -1.916,0.513 -3.01,0.513Zm-0.352,-13.111c-0.664,0 -1.152,0.303 -1.465,0.909c-0.312,0.605 -0.488,1.421 -0.527,2.446l3.735,0l0,-0.586c0,-0.879 -0.136,-1.56 -0.41,-2.043c-0.273,-0.484 -0.718,-0.726 -1.333,-0.726Z" style="fill:#787878;fill-rule:nonzero;"/><path d="M737.07,490.585l0.19,1.201l0.088,0l0.205,-1.201l1.831,-9.873l4.351,0l-4.395,15.849l-4.072,0l-4.409,-15.849l4.35,0l1.861,9.873Z" style="fill:#787878;fill-rule:nonzero;"/><path d="M751.279,496.869c-1.993,0 -3.575,-0.654 -4.746,-1.963c-1.172,-1.309 -1.758,-2.959 -1.758,-4.951l0,-2.227c0,-2.138 0.544,-3.891 1.633,-5.259c1.089,-1.367 2.595,-2.05 4.519,-2.05c1.856,0 3.291,0.62 4.307,1.86c1.015,1.24 1.523,2.93 1.523,5.068l0,2.549l-7.837,0l0,0.059c0,1.045 0.237,1.904 0.711,2.578c0.473,0.674 1.189,1.011 2.146,1.011c0.781,0 1.416,-0.088 1.904,-0.264c0.488,-0.176 1.069,-0.469 1.743,-0.879l1.055,2.651c-0.547,0.528 -1.277,0.962 -2.19,1.304c-0.913,0.342 -1.917,0.513 -3.01,0.513Zm-0.352,-13.111c-0.664,0 -1.152,0.303 -1.465,0.909c-0.312,0.605 -0.488,1.421 -0.527,2.446l3.735,0l0,-0.586c0,-0.879 -0.136,-1.56 -0.41,-2.043c-0.273,-0.484 -0.718,-0.726 -1.333,-0.726Z" style="fill:#787878;fill-rule:nonzero;"/><path d="M762.66,480.712l0.176,2.182c0.44,-0.781 0.979,-1.389 1.619,-1.824c0.64,-0.434 1.345,-0.651 2.117,-0.651c1.318,0 2.356,0.507 3.112,1.523c0.757,1.016 1.136,2.612 1.136,4.79l0,9.829l-4.175,0l0,-9.829c0,-1.094 -0.154,-1.863 -0.462,-2.307c-0.307,-0.444 -0.783,-0.667 -1.428,-0.667c-0.371,0 -0.713,0.098 -1.025,0.293c-0.313,0.196 -0.576,0.464 -0.791,0.806l0,11.704l-4.16,0l0,-15.849l3.881,0Z" style="fill:#787878;fill-rule:nonzero;"/><path d="M778.378,476.771l0,3.941l2.197,0l0,3.017l-2.197,0l0,7.954c0,0.645 0.093,1.106 0.279,1.385c0.185,0.278 0.439,0.417 0.761,0.417c0.254,0 0.469,-0.012 0.645,-0.037c0.176,-0.024 0.371,-0.066 0.586,-0.124l0.322,3.164c-0.439,0.137 -0.859,0.234 -1.26,0.293c-0.4,0.059 -0.854,0.088 -1.362,0.088c-1.338,0 -2.361,-0.413 -3.069,-1.238c-0.708,-0.825 -1.062,-2.136 -1.062,-3.933l0,-7.969l-1.875,0l0,-3.017l1.875,0l0,-3.941l4.16,0Z" style="fill:#787878;fill-rule:nonzero;"/><path d="M789.819,492.416c0,-0.45 -0.176,-0.838 -0.528,-1.165c-0.351,-0.327 -1.025,-0.73 -2.021,-1.208c-1.592,-0.596 -2.786,-1.27 -3.582,-2.022c-0.796,-0.752 -1.194,-1.728 -1.194,-2.93c0,-1.289 0.511,-2.39 1.531,-3.303c1.021,-0.913 2.371,-1.369 4.05,-1.369c1.758,0 3.16,0.468 4.205,1.406c1.045,0.937 1.547,2.134 1.508,3.589l-0.044,0.088l-4.013,0c0,-0.664 -0.137,-1.192 -0.41,-1.582c-0.274,-0.391 -0.694,-0.586 -1.26,-0.586c-0.449,0 -0.83,0.151 -1.143,0.454c-0.312,0.302 -0.468,0.669 -0.468,1.098c0,0.469 0.156,0.848 0.468,1.136c0.313,0.288 0.991,0.681 2.036,1.179c1.661,0.566 2.891,1.238 3.692,2.014c0.801,0.776 1.201,1.794 1.201,3.054c0,1.348 -0.537,2.451 -1.611,3.311c-1.075,0.859 -2.486,1.289 -4.234,1.289c-1.826,0 -3.271,-0.532 -4.336,-1.597c-1.064,-1.064 -1.572,-2.265 -1.523,-3.603l0.029,-0.088l3.809,0c0.019,0.84 0.215,1.445 0.586,1.816c0.371,0.371 0.883,0.557 1.538,0.557c0.556,0 0.981,-0.137 1.274,-0.41c0.293,-0.274 0.44,-0.65 0.44,-1.128Z" style="fill:#787878;fill-rule:nonzero;"/></svg>